<svg xmlns="http://www.w3.org/2000/svg" viewBox="0 0 434.89 417.15"><defs><style>.cls-1{fill:#1b2443;}</style></defs><g id="Capa_2" data-name="Capa 2"><g id="Layer_3" data-name="Layer 3"><path class="cls-1" d="M298.61,1.51l4.12,141.9a3.15,3.15,0,0,1-3.14,3.24h-.94a3.15,3.15,0,0,1-3.15-3.15V1.55A1.56,1.56,0,0,1,297.05,0h0A1.57,1.57,0,0,1,298.61,1.51Z"></path><path class="cls-1" d="M264.68,1.68C254,1.68,243.52,7,247,22a3.17,3.17,0,0,1-3.08,3.91,79.41,79.41,0,0,0-18.6,2.58c-12.21,3-19.53-3.66-47.42,5.93,0,0,13.07-1.92,20.92,1.74,7.56,3.53,36.47,15.8,60.09,9.67a1.34,1.34,0,0,0,.49-2.35c-3.14-2.5-8.22-7.57-5-12.2,4.53-6.45,39.57.35,39.57.35V7.6S276.36,1.68,264.68,1.68Zm-1.49,20.81s11.57,1.15,11.57-8.07c0-7.92-9.36-6.25-9.36-6.25a12.77,12.77,0,0,1,5.79-2.28s9.36-1.14,9.36,8.53C280.55,28.73,263.19,22.49,263.19,22.49Z"></path><path class="cls-1" d="M220.45,230.33s5.26,19.75,32,11.5c0,0-9.75-20.25-27.75-13.5,0,0,16.5,3.75,20.75,11.75,0,0-8.86-2.19-11.5-3.25S225.21,230.79,220.45,230.33Z"></path><path class="cls-1" d="M255.88,200.08c-6.25,15.25-20.42,24.5-20.42,24.5,18.83,2.75,24.25-15.25,24.58-22.67s6.92-11.5,6.92-11.5-30.25,0-36.08,29.92c0,0,6.25,0,9.33-4.59S248.92,201.08,255.88,200.08Z"></path><path class="cls-1" d="M295.79,223.74s.15,10.58-28.16,15.67c0,0,34.25,5.42,41.41-23.67,0,0-14.91-4.33-25.83,3.09s-13.55,13.88-19.75,14.5A45.69,45.69,0,0,0,295.79,223.74Z"></path><path class="cls-1" d="M265.53,219.65c-5-30.84,31.45-39.44,31.45-39.44s-.86,30.22-20.64,35.5c0,0,11.67-12.77,11.55-21.49C287.89,194.22,271.31,201.22,265.53,219.65Z"></path><path class="cls-1" d="M300.55,207.63c6.51-1.13,12.16-19.56,42.75-22.75,0,0-13,23.59-32.93,26.17,0,0,15.36-6.76,19.54-17.94C329.91,193.11,311.48,209.6,300.55,207.63Z"></path><path class="cls-1" d="M303.25,190c-4.79-25.31,15.11-24.33,15.72-32.68,0,0,3.45.93,2.45,13.64-1.09,13.88-7,15.23-9,20.14,0,0-2.7-12.16,2-19.41C314.43,171.73,304,181.68,303.25,190Z"></path><path class="cls-1" d="M351.16,151S328.8,157.85,331,177.38c0,0,7.87-12.28,13.27-14.49,0,0-6.39,10.93-5.89,14.49C338.39,177.38,356.32,166,351.16,151Z"></path><path class="cls-1" d="M325.85,134.75A18.7,18.7,0,0,1,329.91,155s-.62-6.63-2.83-11.05a25,25,0,0,0-2.33,13.39s-4.3-6-4.06-10.71S326.22,136.84,325.85,134.75Z"></path><path class="cls-1" d="M329.91,124.19s-2.46,11.91,9.34,16.21c0,0-4.39-5.16-4.78-10.19a10.09,10.09,0,0,1,5.88,6.14S341,127.5,329.91,124.19Z"></path><path class="cls-1" d="M346.25,144.21s-1-5.53,2.7-9.46,7.86-3.31,9-7c0,0,1.6,11.67-5.9,15.48,0,0,4.18-5.53,3.44-8.48C355.46,134.75,350.3,135.74,346.25,144.21Z"></path><path class="cls-1" d="M343.05,109.94s6.27,7.24,2.46,12.77c0,0-.24-5.4-1.47-6.39a8.24,8.24,0,0,0-1,7.38s-2.69-2.34-2.69-4.43S343.05,113.13,343.05,109.94Z"></path><path class="cls-1" d="M214.44,230.33s-5.26,19.75-32,11.5c0,0,9.75-20.25,27.75-13.5,0,0-16.5,3.75-20.75,11.75,0,0,8.86-2.19,11.5-3.25S209.68,230.79,214.44,230.33Z"></path><path class="cls-1" d="M179,200.08c6.25,15.25,20.42,24.5,20.42,24.5-18.83,2.75-24.25-15.25-24.58-22.67s-6.92-11.5-6.92-11.5,30.25,0,36.08,29.92c0,0-6.25,0-9.33-4.59S186,201.08,179,200.08Z"></path><path class="cls-1" d="M139.1,223.74s-.15,10.58,28.16,15.67c0,0-34.25,5.42-41.41-23.67,0,0,14.91-4.33,25.83,3.09s13.55,13.88,19.75,14.5A45.68,45.68,0,0,1,139.1,223.74Z"></path><path class="cls-1" d="M169.36,219.65c5-30.84-31.45-39.44-31.45-39.44s.86,30.22,20.64,35.5c0,0-11.67-12.77-11.55-21.49C147,194.22,163.58,201.22,169.36,219.65Z"></path><path class="cls-1" d="M134.34,207.63c-6.51-1.13-12.16-19.56-42.75-22.75,0,0,13,23.59,32.93,26.17,0,0-15.36-6.76-19.54-17.94C105,193.11,123.41,209.6,134.34,207.63Z"></path><path class="cls-1" d="M131.64,190c4.79-25.31-15.11-24.33-15.72-32.68,0,0-3.45.93-2.45,13.64,1.09,13.88,7,15.23,9,20.14,0,0,2.7-12.16-2-19.41C120.46,171.73,130.9,181.68,131.64,190Z"></path><path class="cls-1" d="M83.73,151s22.36,6.88,20.15,26.41c0,0-7.87-12.28-13.27-14.49,0,0,6.39,10.93,5.89,14.49C96.5,177.38,78.57,166,83.73,151Z"></path><path class="cls-1" d="M109,134.75A18.7,18.7,0,0,0,105,155s.62-6.63,2.83-11.05a25,25,0,0,1,2.33,13.39s4.3-6,4.06-10.71S108.67,136.84,109,134.75Z"></path><path class="cls-1" d="M105,124.19s2.46,11.91-9.34,16.21c0,0,4.39-5.16,4.78-10.19a10.09,10.09,0,0,0-5.88,6.14S93.92,127.5,105,124.19Z"></path><path class="cls-1" d="M88.64,144.21s1-5.53-2.7-9.46-7.86-3.31-9-7c0,0-1.6,11.67,5.9,15.48,0,0-4.18-5.53-3.44-8.48C79.43,134.75,84.59,135.74,88.64,144.21Z"></path><path class="cls-1" d="M91.84,109.94s-6.27,7.24-2.46,12.77c0,0,.24-5.4,1.47-6.39a8.24,8.24,0,0,1,1,7.38s2.69-2.34,2.69-4.43S91.84,113.13,91.84,109.94Z"></path><path class="cls-1" d="M293.28,98.94c.64-.51,2.07-.29,2.21-1.29s-2-1.58-2.5-1.86-1.29-2.29-1.43-2.72a4.56,4.56,0,0,0-.5-.95s-3.08.52-3.93.09-4.37.72-4.87.93-1.71.36-2.07.5,0,2.65,0,2.65-.93,2.29-1,2.5-4.44,6.65-5.44,8.23a4.58,4.58,0,0,1-3.64,2.21c-1.08,0-1.51-1.21-1.79-1.57s-1.65-.64-1.65-.64-.57-2.73-.17-3.53,1.45-.66,1.72-1.72.93-.53,1.33-1.46,1.06-1.32,2.38-1.72a4.56,4.56,0,0,0,2.25-1.46c.4-.4,1.46-2.38.53-2.38s-1.32.53-2,1.32-2.39.53-4,.4-1.33-2.39-1.33-3.31-2.78-2.26-3.71-2.66a34.61,34.61,0,0,0-6.62-1.65,15.73,15.73,0,0,1-4.72-1.29c-1.22-.5-1.79-.21-2.07-.42s.07-1,.57-1.65,1-.57,1.71-.36,1.22-.28,2.36-.57,1.51.57,2.58,1a7.64,7.64,0,0,0,3.65.5c.71-.21,0-1,0-1.79a9.68,9.68,0,0,1,.14-1.93c.14-.93.71-.78.86-1.78s-.65-1.58-.72-2.29a3.52,3.52,0,0,1,.43-1.65,3.48,3.48,0,0,0,.14-.93s-2.14,1.72-3,2.43a33.42,33.42,0,0,1-3.15,2.22c-1.5,1-2.86.65-4.36.72s-1.14-.93-1-1.58a28.51,28.51,0,0,0,.12-3V76a9.71,9.71,0,0,1,.09-1.29,2.68,2.68,0,0,1,1.28-2,3,3,0,0,1,3.29-.14c1.29.57,2.43,3,2.43,3l.43-.79a2.36,2.36,0,0,1,.65-1.09,15.28,15.28,0,0,0,2-2.12c.5-.72.5-2.65.86-3.37a3.87,3.87,0,0,0,.43-2.57c-.22-1-5.15-1.5-5.87-1.57a9.44,9.44,0,0,0-3.29,0c-1.57.28-2.14-1.58-2.79-1.93a9.07,9.07,0,0,1-2.5-2.36c-1-1.29-2.65-.58-3.5-1a6,6,0,0,0-2.86-.43c-1.15,0-1.72.22-2.87.22a30.29,30.29,0,0,0-4.29.14,9.88,9.88,0,0,1-4.5-.64c-.93-.43-2.5-1.57-3-1.86s-.71-.93-1.28-.72-.86.79-1.5,1.72-.36,1.72-.51,2.79,1,3.43,1,3.43c.35.93-.79,2-1.15,2.79a28.72,28.72,0,0,0-.93,3.58c-.28,1.14.79,3,.65,3.22s-.15,1.28-.43,1.93a5,5,0,0,0-.58,2.64,11.52,11.52,0,0,0,1.72,4.51c.86,1.43,0,.86-.14,1.86s.21.78,1,1.36.79,1.14.93,2.43,1.57,2.14,2,2.64.22,1.51-.14,2.86-.36,1.36.07,2.15.79-.14,2.07-.14,1.22,1.14,2.22,1.71.79,1.22.5,2.86a4.24,4.24,0,0,1-2.14,2.94c-.79.5-2.65.28-4.15.71a14.71,14.71,0,0,1-8.8-.79,14.47,14.47,0,0,0-3.93-.28c-1,.07-3.72-1.36-4.18-1.72s-5.48-2.36-6.41-2.79-6.36-3.43-6.65-3.57-3.64-2.15-4-2.22-4.36-1.36-4.79-1.57a36.74,36.74,0,0,0-5.65-1.15c-.86,0-2.79-.5-3.86-.5s-3.22-.14-4-.14-5.36.14-5.36.14-3.51.65-3.86.79-4.37,1.21-5.15,1.79-3,2-4.44,2.86-3.43,3.29-4.36,3.79-3.36.07-4.15-.29-2-3.93-2-3.93-.5-3.65,3.36-6.44,13-2.57,13.8-2.43,10.16.21,10.8.29,8.23.85,9,1.14,5.44.5,6.3.79,5.07.07,5.72.14,5.79-.5,6.43-.29a13.19,13.19,0,0,0,5.08-.85c.86-.51,1.36-.43,1.86-.79a38.71,38.71,0,0,0,3.72-3,3.62,3.62,0,0,0,.57-1.51,12.05,12.05,0,0,0-.5-2.71c-.29-.65-2.72-4-3.29-4.15s-5.15-2.29-5.86-2.43-3-.86-3.44-.86-5.29-.07-6.29-.5-9.37-1-9.72-.93-4.51-.36-6.51-.57-9.44-1.29-10.23-1.58a7.38,7.38,0,0,1-2.65-2c-.42-.64-.78-1.72-1.43-2.93a2.38,2.38,0,0,1-.28-2c-.93.5-1.86,3-2.15,2.86s-1.64-.5-1.86-1.22.43-1.36,1.51-3.86,1.85-1.65,2.64-2.43,1.65-.57,2.65-1,1.93-.93,1.21-.58-1.43-.64-2-.5a9.42,9.42,0,0,1-2.86-.35c-1.14-.22-1.57.14-2.93.5s-2.22,2.14-3.94,3.07-2.21,4-2.21,4a8.73,8.73,0,0,0-.22,3.36c.22,2.07,4,4.72,4.58,5.15s6.51,1.93,7.44,2.14,6.08.36,7.22.43,8,.79,9.3.86,8.51.36,8.94.5,7,.86,8.44,1.22,4.14.85,5.43,1.35,2,.79,3.15,1.29,1.43,1.58,1.71,2.65-1.07,2.21-1.64,2.93-6.37,1.79-7.87,2.07-10.08-.57-11.3-.64-16.23-2.36-17.88-2.72-14.08-.57-15.87,0-4.79.57-5.51,1.15-2.07,1.43-5.08,3.79-2.71,7.08-2.57,9.51,2.5,5.86,3.22,6.43a1.55,1.55,0,0,1,.64,2c-.28,1.07-1.43,3.22-2.14,5.07s-.65,4.72-.79,5.87a2.31,2.31,0,0,1-1.65,2c-.93.43-.57.29-1,2.15s1.72,3.43,1.72,2.93a5.64,5.64,0,0,1,.5-1.79c.29-.79.29-1.72.64-2.43a1.15,1.15,0,0,1,1.72-.5c.5.43-.43,2.14-.72,2.43s-2.07,4.86-2.71,5.58a10.91,10.91,0,0,1-3.65,2.57,15.73,15.73,0,0,1-3.72,1.22,29.56,29.56,0,0,0-3.65.93c-1,.36-.85,1.64-2.21,2.57s-2.79-2.29-2.86-1.28,1.28,2.5,3.29,3.79,5.22,5.29,5.57,5.86,1.72,3.29,2.36,4.65,3.79,8.87,3.79,10.15-1.21,2.51-1.64,3.87a12.31,12.31,0,0,0,0,4.57c.14,1.5.29,1.43.93,1.65s1.14-.79,1.93-.86a12.73,12.73,0,0,0,2.5.07c1.22-.21,1.08-1.07,1.72-1.5s1.72,0,3.07.64a14.93,14.93,0,0,1,4,2.58,7.82,7.82,0,0,1,.93,2.64,1,1,0,0,0,1.57.43c.72-.64,1.86-1.57,1.86-1.57s1-.72,2.08-1.43.35-1.07.42-1.79-.07-2.93-.07-3.15,1.58.36,2.43.79.51,2.58,1.15,2.29a14.8,14.8,0,0,0,2.65-2.15c.57-.57.57.22,1.28-.21s.57-1.22.86-2.15-1.22-3-1.57-3.57-1.65-2.29-2.93-2.36-2.51-1.43-3-1.58-2.57-1-3.29-1.28-1.29.14-2.14.5-2.15-.22-2.65-.36-1.07-1-1.29-1.57-1.86-3.65-2.14-4.08a20,20,0,0,1-1.43-2.57,19.07,19.07,0,0,1-.86-3.15,11.31,11.31,0,0,0-.29-2.65,2.53,2.53,0,0,1,0-2.14c.36-.79.79-.93,1.72-1.15s.5.15,1.43.15a2.13,2.13,0,0,1,2,1.07c.43.71-.64,2.15-.64,2.15,2.5.71,2.86-1.65,4-2.15s4.29.43,5.08.57,2.22-1.29,3.08-1.86.5-.71,1.64-1.07,2.72,1.5,2.93,2.43a44.09,44.09,0,0,1,.72,5.44,6.39,6.39,0,0,0,1,3.5c.29.64.43,1.72,1.07,2.22a3.36,3.36,0,0,1,1,1.57c.21.43.16,1.86.44,1.57a5.85,5.85,0,0,0,1-1.28c.5-.79.29-2.29.43-2.51s.72.93.93,1.43a9.66,9.66,0,0,1,.65,2.15,24.92,24.92,0,0,1,.5,3.36c.07,1.65.85,4.58.35,5.72a17.66,17.66,0,0,1-1.5,2.86c-.57.86-1.43.72-2.29,1.58s.43.93,1.51,1.28,1.07,1.08,2.43,2.36,3.29-.43,4.43-1.21,2.79-.72,3.65-1.15,2.36-.43,4.36.86.72,2.36,0,2.93-1.07-.07-1.5.43.86,1,3.29,1.86,4.15.07,4.65-.64.93-2.15,1.64-.72,2.15,1.86,3.51,2.36,1.43,0,2.28.43a22.24,22.24,0,0,1,3.15,2.93,23.77,23.77,0,0,0,1.36-2.57c.29-.79-.21-1.29.14-2.43a4.63,4.63,0,0,1,1.29-1.93,5.77,5.77,0,0,0-.5-2.36c-.5-.86.29-1.22,1.14-1.36a3,3,0,0,1,2.29.86c.57.5,1.08,1.21,1.25.21a13.88,13.88,0,0,0-.32-3.36c-.07-.64-.57-4.51-.57-4.51s-.43-2-3.36-2.93a9.32,9.32,0,0,0-6.44.36c-1,.43-1.64.93-2.72,1.5a5.8,5.8,0,0,1-4.5-.28c-.93-.65-3.08-1-3.72-1.36s-2.07-1.5-2.72-1.79-.43-1.86-.57-2.58-.14-1.5-.36-2.57-.57-2.86-.64-3.58a16.94,16.94,0,0,1,.07-3.36c.14-.21.72.07,1.29.58a5.63,5.63,0,0,1,1.36,1.64c.21.5-.57,3.5.78,2.29s.58-4.65.22-5.22a6.83,6.83,0,0,1-.36-3.22,4.4,4.4,0,0,0-1.14-3c-.36-.17-1-1.83-.93-3.76s-2.58-6-3.22-6.8a18.42,18.42,0,0,0-5.51-2.93,7.39,7.39,0,0,1-2.36-1.07,28.37,28.37,0,0,1-2.93-2.51c-.57-.57-1.5-1.35-1.5-1.35a4.15,4.15,0,0,1-.43-3.94c.86-2.36,4.93-2.43,5.29-2.29s7,1,8.3,1.58,3.5.71,4.72,1.5,1.21,2.07,2.5,2.22,4.43,2.71,5.15,3.73a14.66,14.66,0,0,0,2.22,2.56c.35.21,2.93,2.93,3.36,3.29s2.07,2.29,2.71,3,4.51,4.08,4.51,4.08,3.65,3.07,4.22,3.5,3,1.43,4.22,2.29,3.86.5,4.79.36l2.07-.29a14.07,14.07,0,0,1,2.36-.07c.79,0,.43.93.15,1.29a12.15,12.15,0,0,1-1.36,1.29c-.43.35-2.22-.08-2.22-.08s-1.57.08-1.71,1.22,1.07,1.36,1.71,1.72a14.49,14.49,0,0,0,2.5,1.5,5.15,5.15,0,0,1,2.15,1.93,6.74,6.74,0,0,1,1.79,2.57,32.54,32.54,0,0,1,1.07,3.51c.14.78-.43,3,0,4s1.65,1.43,2.36,1.79a1.31,1.31,0,0,1,.79,1.5c-.07.65.93,1.22,1.14.72a2.15,2.15,0,0,0,0-1.5c-.14-.5-1.14-1.22-1.43-1.58s.22-1.43.86-2.07,1.07.07,1.5.57,1.07,1.22,1.65,1.79,1.71,2.29,2.43,3.29a13.8,13.8,0,0,1,1.07,2.57,7,7,0,0,0,1.57,2.15,9.56,9.56,0,0,1,2.44,1.86c.21.5-.15,1.21-.36,1.86a1.18,1.18,0,0,0,.71,1.36c.29,0,.22-1,.72-1.65s1.07-.71,1.36-1.72.43-.35.93-.14a7.31,7.31,0,0,1,2.21,2.22c.22.57.15,2.57.36,3.79a6.84,6.84,0,0,0,2,3,9,9,0,0,1,.79-2.93,11.82,11.82,0,0,1,1.36-2.29c.64-.64,2.22-.28,2.72-.14a35.73,35.73,0,0,1,5.07,1.79c.72.5,2.65-.15,4.15-.36a5.57,5.57,0,0,1,4.08,1.64c.93.86,1.29,3.51,2.14,2.44s2.22-3.58,2.72-4.37a15.75,15.75,0,0,1,1.29-2.14c.57-.65,1.43.36,1.43.36s.79,1.71,1.79,1.07.5-4.65.5-5.15a11.79,11.79,0,0,0,.07-1.57,11.73,11.73,0,0,0-1.29-2.36,8.48,8.48,0,0,0-.71-.79l-3.79-3.58a22.66,22.66,0,0,0-3.87-1.71c-1.71-.5-4.72,1.71-5.79,2.29s-1.64-.22-2.36.14-2.22,1.07-2.79.64-3.43-.78-3.79-1.14a21.36,21.36,0,0,1-2-2.51c-.21-.42-1.79-2.71-2.29-3.36s-2.43-4.36-3.57-5.36-1.15-3.58-.65-4.58,3.58-5.5,3.94-6.08a7,7,0,0,0,.57-1.21,16.2,16.2,0,0,0,2.5.43,9.59,9.59,0,0,1,4.36,2.14c.65.65.43.93.07,1.5s-.57.51-.93.79.29.79.29.79.36.28,1.5-.36a8.78,8.78,0,0,0,2.51-3.07,4.51,4.51,0,0,0,0-2.72c-.15-.72-.65-1.43-.79-2.15a9.61,9.61,0,0,1,.5-2.93c.21-1,.43-.86,1.14-1.64a2.44,2.44,0,0,1,2-1,7.17,7.17,0,0,0,3.14-1.57c.93-.71.5-.57,1.22-1a3.9,3.9,0,0,1,3.43.57c.5.65,3,.14,3.93.22s.86,1.07,1,1.71-.65.86-1,1.36a2.41,2.41,0,0,0-.35,2c.21.72,2.79,1.15,3.5.93s.57-.07,1.15-.93-.08-.64-.65-.57a1.81,1.81,0,0,0-1,.57s-1-.43-.71-1.28-.08-2.29.14-3.29-.57-2.22-1-2.94-.22-1.14.14-1.78,1.79-1.15,2.57-2,4.15-2.88,4.58-3.45.86-2.07,1.57-2.5,2.65-.14,2.94-.45.21-1.41.43-2.27,1.28-.07,1.78.36,2.08,2.22,2.36,1.86.29-2.72.43-3.08.65-1.93.65-1.93c.78-3-2.79-6-2.86-6.62S292.63,99.44,293.28,98.94ZM243.67,64.37c.19,0,1.18-.86,1.51-.86s2.51.73,3,.86a3.61,3.61,0,0,0-1.47.92c-.33.53-1.58.07-2.18,0S243.47,64.37,243.67,64.37Z"></path><path class="cls-1" d="M.12,261.61H10.29l13.28,19.51V261.61H33.84v35.26H23.57l-13.2-19.36v19.36H.12Z"></path><path class="cls-1" d="M71.57,279.26q0-8.62,4.81-13.44T89.78,261q8.79,0,13.56,4.73T108.1,279A21.62,21.62,0,0,1,106,289.11a14.86,14.86,0,0,1-6,6.16,19.82,19.82,0,0,1-9.8,2.2,22.46,22.46,0,0,1-9.87-1.9,14.87,14.87,0,0,1-6.34-6A20,20,0,0,1,71.57,279.26Zm10.9.05q0,5.34,2,7.68a7.5,7.5,0,0,0,10.83,0q1.93-2.28,1.93-8.2,0-5-2-7.27a6.88,6.88,0,0,0-5.45-2.3,6.64,6.64,0,0,0-5.29,2.33Q82.47,273.93,82.47,279.31Z"></path><path class="cls-1" d="M142.08,261.61H175.2v8.71H164.09v26.55H153.2V270.32H142.08Z"></path><path class="cls-1" d="M230.33,291.05H218l-1.72,5.82H205.12l13.25-35.26h11.88l13.25,35.26H232.09Zm-2.26-7.62-3.89-12.68-3.85,12.68Z"></path><path class="cls-1" d="M279,296.87V261.61h18.15a26.24,26.24,0,0,1,7.72.87,8.26,8.26,0,0,1,4.31,3.21,10,10,0,0,1-3.06,14.22,13,13,0,0,1-3.83,1.4,10.8,10.8,0,0,1,2.84,1.3,11.25,11.25,0,0,1,1.74,1.85,14.6,14.6,0,0,1,1.53,2.19l5.27,10.22H301.34l-5.82-10.78a8.13,8.13,0,0,0-2-2.71,4.56,4.56,0,0,0-2.67-.82h-1v14.31Zm10.94-21h4.59a16.47,16.47,0,0,0,2.89-.48,2.94,2.94,0,0,0,1.77-1.11,3.28,3.28,0,0,0,.68-2,3.23,3.23,0,0,0-1.08-2.62c-.72-.61-2.08-.92-4.07-.92h-4.78Z"></path><path class="cls-1" d="M349.44,261.61h10.92v35.26H349.44Zm5.29-9.33h8.42l-7.77,7.19h-4.69Z"></path><path class="cls-1" d="M421.72,291.05H409.35l-1.72,5.82H396.51l13.25-35.26h11.88l13.25,35.26H423.48Zm-2.26-7.62-3.89-12.68-3.86,12.68Z"></path><path class="cls-1" d="M0,322H18.11c3.94,0,6.9.94,8.86,2.81s3,4.55,3,8-1.07,6.34-3.21,8.34-5.41,3-9.8,3h-6v13.08H0Zm10.94,15h2.67c2.1,0,3.58-.37,4.43-1.1a3.52,3.52,0,0,0,1.27-2.8,3.94,3.94,0,0,0-1.1-2.81c-.74-.77-2.13-1.16-4.17-1.16h-3.1Z"></path><path class="cls-1" d="M90.43,322H101.3v21a17.64,17.64,0,0,1-1,5.9,12.76,12.76,0,0,1-3,4.86,12.24,12.24,0,0,1-4.37,2.92,22,22,0,0,1-7.62,1.17,48.07,48.07,0,0,1-5.62-.36,14.53,14.53,0,0,1-5.08-1.43,12.5,12.5,0,0,1-3.74-3A11,11,0,0,1,68.52,349a20.8,20.8,0,0,1-1-6V322H78.38v21.5A6.12,6.12,0,0,0,80,348a6.89,6.89,0,0,0,8.85,0,6.13,6.13,0,0,0,1.6-4.53Zm-6.31-9.33h8.42l-7.77,7.19H80.08Z"></path><path class="cls-1" d="M140.4,322h20.4q5.08,0,7.82,2.52a8.19,8.19,0,0,1,2.73,6.25,7.93,7.93,0,0,1-1.94,5.37,8.71,8.71,0,0,1-3.8,2.35,9.92,9.92,0,0,1,5.59,3.14,8.68,8.68,0,0,1,1.79,5.6,9.57,9.57,0,0,1-1.28,4.92,9.42,9.42,0,0,1-3.48,3.47,11.58,11.58,0,0,1-4.14,1.15,47.76,47.76,0,0,1-4.88.48H140.4Zm11,13.83h4.74a5.49,5.49,0,0,0,3.55-.88,3.23,3.23,0,0,0,1-2.54,3,3,0,0,0-1-2.4,5.36,5.36,0,0,0-3.48-.87h-4.81Zm0,13.85H157a6.1,6.1,0,0,0,4-1,3.35,3.35,0,0,0,1.15-2.68,3.13,3.13,0,0,0-1.14-2.52c-.76-.63-2.1-.94-4-.94h-5.53Z"></path><path class="cls-1" d="M210.55,322h10.9v26.57h17v8.68h-27.9Z"></path><path class="cls-1" d="M275.71,322h10.91v35.25H275.71Z"></path><path class="cls-1" d="M349.78,342.84l9.55,2.89a17.74,17.74,0,0,1-3,6.71,13,13,0,0,1-5.13,4.06,19.1,19.1,0,0,1-7.8,1.37,22.58,22.58,0,0,1-9.4-1.67,14.88,14.88,0,0,1-6.28-5.87A19.87,19.87,0,0,1,325,339.56q0-8.74,4.65-13.45t13.17-4.69q6.66,0,10.48,2.69a15.86,15.86,0,0,1,5.66,8.27l-9.62,2.14a8.2,8.2,0,0,0-1.06-2.35,6.18,6.18,0,0,0-2.24-1.93,6.88,6.88,0,0,0-8.63,2.31q-1.49,2.2-1.49,6.94,0,5.86,1.78,8a7,7,0,0,0,9.73.42A10.91,10.91,0,0,0,349.78,342.84Z"></path><path class="cls-1" d="M418.16,351.45H405.79l-1.72,5.82H393L406.2,322h11.88l13.25,35.25H419.92Zm-2.26-7.62L412,331.16l-3.85,12.67Z"></path><path class="cls-1" d="M.1,381.29H11v12.34h11.9V381.29h11v35.26h-11V402.29H11v14.26H.1Z"></path><path class="cls-1" d="M74.85,381.29H85.72v21a17.68,17.68,0,0,1-1,5.9,12.77,12.77,0,0,1-3,4.85A12.19,12.19,0,0,1,77.33,416a21.87,21.87,0,0,1-7.62,1.18,48.07,48.07,0,0,1-5.62-.36A14.68,14.68,0,0,1,59,415.36a12.65,12.65,0,0,1-3.74-3A11.07,11.07,0,0,1,53,408.26a20.86,20.86,0,0,1-1-6v-21H62.81V402.8a6.15,6.15,0,0,0,1.59,4.5,6.9,6.9,0,0,0,8.85,0,6.12,6.12,0,0,0,1.6-4.53Z"></path><path class="cls-1" d="M123.77,410.73H111.4l-1.72,5.82H98.56l13.25-35.26h11.88l13.25,35.26H125.53Zm-2.26-7.62-3.89-12.68-3.86,12.68Z"></path><path class="cls-1" d="M151.12,381.29h14.32L171,402.74l5.49-21.45h14.31v35.26h-8.92V389.66L175,416.55H166.9L160,389.66v26.89h-8.92Z"></path><path class="cls-1" d="M230.24,410.73H217.87l-1.72,5.82H205l13.25-35.26h11.88l13.25,35.26H232ZM228,403.11l-3.9-12.68-3.85,12.68Z"></path><path class="cls-1" d="M257.78,381.29H268l13.28,19.51V381.29H291.5v35.26H281.23L268,397.19v19.36H257.78Z"></path><path class="cls-1" d="M307.09,381.29h33.12V390H329.1v26.55H318.2V390H307.09Z"></path><path class="cls-1" d="M356,381.29h10.9v26.58h17v8.68H356Z"></path><path class="cls-1" d="M421.34,410.73H409l-1.72,5.82H396.13l13.25-35.26h11.88l13.25,35.26H423.1Zm-2.26-7.62-3.9-12.68-3.85,12.68Z"></path></g></g></svg>